{"title":"The Good The Bad The Weird 2008 DVDRip English Subtitles Xvid LK","uid":10553509,"size":1311395692,"categoryP":"video","categoryS":"movies","magnet":"?xt=urn:btih:5546b2b700fd1dd25bcd89297a679f1c41d3cd3c&amp;dn=The+Good+The+Bad+The+Weird+2008+DVDRip+English+Subtitles+Xvid+LK&amp;tr=udp%3A%2F%2Ftracker.openbittorrent.com%3A80&amp;tr=udp%3A%2F%2Fopen.demonii.com%3A1337&amp;tr=udp%3A%2F%2Ftracker.coppersurfer.tk%3A6969&amp;tr=udp%3A%2F%2Fexodus.desync.com%3A6969","seeders":12,"leechers":1,"uploader":".BONE.","files":2,"time":1405363388,"description":"PLOT\n\nThe story of two outlaws and a bounty hunter in 1940s Manchuria and their\nrivalry to possess a treasure map while being pursued by the Japanese army and Chinese bandits.\n\nRuntime ..........: 2h 10mn\nFile Size ........: 1.22 GB\nResolution .......: 720 x 368 &lt;a href=&quot;\nhttp://www.imdb.com/title/tt0901487/&quot; rel=&quot;nofollow&quot; target=&quot;_NEW&quot;&gt;\nhttp://www.imdb.com/title/tt0901487/&lt;/a&gt;\nGenre ............: Action.Adventure,Comedy\nLanguage .........: Korean,Mandarin,Japanese\nSubtitles ........: English\nComplete name : The Good The Bad The Weird 2008 DVDRip English Subtitles Xvid LKRGTGTBTWeird_LKRG.avi\nFormat : AVI\nFormat/Info : Audio Video Interleave\nFile size : 1.22 GiB\nDuration : 2h 10mn\nOverall bit rate : 1 344 Kbps\nWriting application : VirtualDubMod 1.5.10.2 (build 2540/release)\nWriting library : VirtualDubMod build 2540/release\nVideo\nID : 0\nFormat : MPEG-4 Visual\nFormat profile : Advanced Simple@L5\nFormat settings, BVOP : 2\nFormat settings, QPel : No\nFormat settings, GMC : No warppoints\nFormat settings, Matrix : Default (H.263)\nMuxing mode : Packed bitstream\nCodec ID : XVID\nCodec ID/Hint : XviD\nDuration : 2h 10mn\nBit rate : 887 Kbps\nWidth : 720 pixels\nHeight : 368 pixels\nDisplay aspect ratio : 2.40:1\nFrame rate : 23.976 fps\nColor space : YUV\nChroma subsampling : 4:2:0\nBit depth : 8 bits\nScan type : Progressive\nCompression mode : Lossy\nBits/(Pixel*Frame) : 0.140\nStream size : 825 MiB (66%)\nWriting library : XviD 1.2.1 (UTC 2008-12-04)\nAudio\nID : 1\nFormat : AC-3\nFormat/Info : Audio Coding 3\nMode extension : CM (complete main)\nFormat settings, Endianness : Big\nCodec ID : 2000\nDuration : 2h 10mn\nBit rate mode : Constant\nBit rate : 448 Kbps\nChannel(s) : 6 channels\nChannel positions : Front: L C R, Side: L R, LFE\nSampling rate : 48.0 KHz\nBit depth : 16 bits\nCompression mode : Lossy\nStream size : 417 MiB (33%)\nAlignment : Split accross interleaves\nInterleave, duration : 42 ms (1.00 video frame)\nInterleave, preload duration : 500 ms","torrent":{"xt":"urn:btih:5546b2b700fd1dd25bcd89297a679f1c41d3cd3c","amp;dn":"The+Good+The+Bad+The+Weird+2008+DVDRip+English+Subtitles+Xvid+LK","amp;tr":["udp%3A%2F%2Ftracker.openbittorrent.com%3A80","udp%3A%2F%2Fopen.demonii.com%3A1337","udp%3A%2F%2Ftracker.coppersurfer.tk%3A6969","udp%3A%2F%2Fexodus.desync.com%3A6969"],"infoHash":"5546b2b700fd1dd25bcd89297a679f1c41d3cd3c","infoHashBuffer":{"type":"Buffer","data":[85,70,178,183,0,253,29,210,91,205,137,41,122,103,159,28,65,211,205,60]},"announce":[],"urlList":[]}}